<?xml version="1.0" standalone="no"?>
<!DOCTYPE svg PUBLIC "-//W3C//DTD SVG 1.1//EN" "http://www.w3.org/Graphics/SVG/1.1/DTD/svg11.dtd">
<svg xmlns="http://www.w3.org/2000/svg">
<metadata>Copyright (C) 2020 by original authors @ fontello.com</metadata>
<defs>
<font id="fontello" horiz-adv-x="1000" >
<font-face font-family="fontello" font-weight="400" font-stretch="normal" units-per-em="1000" ascent="850" descent="-150" />
<missing-glyph horiz-adv-x="1000" />
<glyph glyph-name="close" unicode="&#xe800;" d="M656 374l241 241c43 43 43 113 0 155-43 43-112 43-155 0l-241-241-242 241c-43 43-112 43-155 0-43-42-43-112 0-155l242-241-242-242c-43-43-43-112 0-155 22-21 50-32 78-32 28 0 56 11 77 32l242 242 241-242c22-21 50-32 78-32 28 0 56 11 77 32 43 43 43 112 0 155l-241 242z" horiz-adv-x="1000" />

<glyph glyph-name="deporte-baloncesto" unicode="&#xe801;" d="M498 824c221-3 428-173 467-395 27-158-32-327-150-434-130-119-330-156-494-91-146 58-259 191-292 344-30 146 12 304 110 415 88 99 217 158 350 160 3 1 6 1 9 1z m295-804l-216 216c-51-59-87-130-101-209-7-40-9-80-5-121 62-3 124 5 182 27 51 20 99 50 140 87z m-603 7c1-2 2-3 4-4 70-66 164-106 260-115-10 122 30 248 109 342l-75 75-298-298z m745 371c-6 1-12 1-18 1-125-2-244-59-329-150l217-217c60 59 104 135 122 218 11 49 13 99 8 148z m-757-360l299 299-93 93c-91-77-212-115-330-110 7-104 51-206 124-282z m638 615l-316-316 74-74c86 94 211 150 340 152 3 0 6 0 9 0 3 0 6 0 9 0-13 82-48 160-102 222-4 5-9 11-14 16z m-646-10c-56-60-96-135-111-217-5-29-7-59-6-88 65-5 130 4 191 28 46 18 89 44 127 76l-201 201z m378 144c-1-130-56-259-152-346l92-92 316 315c-69 67-160 111-256 123z m-16 2c-13 1-26 1-40 1-116-1-228-53-310-135l202-202c69 64 119 148 138 240 7 31 10 63 10 96z" horiz-adv-x="1000" />

<glyph glyph-name="deporte-balonmano" unicode="&#xe802;" d="M503 824c221-3 428-173 466-395 27-158-31-327-149-434-131-119-330-156-495-91-145 58-259 191-291 344-31 146 11 304 110 415 87 99 217 158 350 160 3 1 6 1 9 1z m182-879c76 136 126 287 118 437-1 4-1 8-1 12-60 16-122 26-183 29 17-177-53-358-153-516 65-5 130 3 191 26 10 4 19 8 28 12z m-238-36c98 153 166 325 156 503 0 3 0 7-1 11-47 1-95-3-142-12-4-1-8-2-12-3-1-157-68-313-160-449 49-26 104-43 159-50z m496 436c-41 17-82 32-124 44 12-146-34-294-107-430 110 61 193 169 220 291 7 31 11 63 11 95z m-863-136c24-70 64-135 118-186 19-17 39-33 61-47 12 17 23 35 34 53-60 28-111 73-158 120-19 19-37 39-55 60z m7 298c-10-26-18-53-23-81-11-60-8-122 6-180 60-79 131-147 216-195 6-3 11-6 15-9 31 54 58 110 77 168-57 28-106 71-152 117-53 54-99 115-139 180z m136 181c-55-44-99-100-128-164 70-121 163-227 283-295 2-1 4-2 5-3 19 58 30 118 31 179 0 5 0 12 0 18-84 69-146 162-191 265z m677-151c-11 4-22 9-33 12-167 56-351 80-515 31-13-4-21-6-27-7 28-41 60-79 97-113 6-5 13-11 17-15 3-1 4-2 5-4 46 11 93 14 140 14 123-1 243-29 357-74-4 54-19 107-41 156z m-116 150c-169 57-351 82-519 31l-1 0c-5-3-9-6-13-9 18-44 41-86 67-125l0 0c2 3 6 4 10 5 70 26 148 33 223 33 115-2 228-25 337-62-15 27-33 53-53 77-16 18-33 34-51 50z m-40 29c-73 48-159 74-247 74-60 0-119-15-174-39 46 8 94 9 140 9 95-1 190-17 281-44z" horiz-adv-x="1000" />

<glyph glyph-name="deporte-ciclismo" unicode="&#xe803;" d="M503 824c221-3 428-173 466-395 27-158-31-327-149-434-131-119-330-156-495-91-145 58-259 191-291 344-31 146 11 304 110 415 87 99 217 158 350 160 3 1 6 1 9 1z m-6-34c-204-2-396-160-433-364-26-146 26-302 134-403 121-112 306-148 459-90 136 52 243 175 275 317 30 135-7 283-97 387-83 96-209 154-338 153z m6-18c189-2 368-142 411-329 32-140-12-295-114-396-114-115-299-155-451-97-122 46-219 151-256 276-41 136-7 292 86 399 80 93 199 148 324 147z m16-832l0 262-14 14-14-14 0-262c9 0 19 0 28 0z m-231 59c57-33 122-53 187-58l0 246-187-188z m246-58c38 3 75 11 111 24 26 10 50 23 73 38l-184 184 0-246z m-283 83c7-5 15-10 22-15l202 202 0 34-1 2-223-223z m503 4l-218 219-2-2 0-34 199-198c7 5 14 10 21 15z m-339 264l-218-218c4-5 9-10 14-15 9-9 17-17 26-24l221 221c-17 8-33 20-43 36z m174 6c-9-16-24-30-41-39l220-219c14 12 27 26 40 40l-219 218z m-185 15l-30 0-205-204c5-7 11-14 16-21l221 220c-1 2-2 4-2 5z m232 0l-34 0-2-1 219-219c5 7 11 14 16 22l-199 198z m-287 0l-255 0c6-67 29-133 65-190l190 190z m558 0l-246 0 184-184c20 32 36 66 46 102 8 27 13 54 16 82z m-416-87l1 2-1 2 0-4z m26 2l2-2 0 4-2-2z m-5 20c-4-1-8-1-12-1 0 0-1 0-1 0l6-6 7 7z m-21 16c3 0 6 0 9 0 6 0 12 0 17 1l-12 13-14-14z m83 49l-23 0c-4-7-10-12-17-17l0-23 2-1 40 40-2 1z m-125 0l-14 0-1-1 40-40 1 1 0 18c-10 5-19 12-26 22z m70-24c0 0 0 0 0 0l0-1 0 1z m389 68l-262 0-15-14 15-15 261 0c1 10 1 19 1 29z m-544 0l-272 0c0-10 0-19 1-29l271 0 14 15-14 14z m253-29l4 0-2 2-2-2z m-191 29l-9 0-3-4c0-1 0-2 0-3 0-7 0-14 2-21l1-1 9 0 13 13c0 1 0 2 0 3l-13 13z m-37-29l3 0-1 2-2-2z m170 1c0 0 0-1-1-1l1 0 0 1z m27 28l-2 0-14-14 14-15c2 7 2 15 2 22 0 2 0 5 0 7z m17-11c0-2 0-5-1-8l5 5-4 3z m18 11l-4 0 2-2 2 2z m-229 0l-3 0 2-2 1 2z m456 203l-187-188 246 0c-5 66-25 131-59 188z m-692 5c-26-40-45-84-55-130-4-21-7-42-8-63l256 0-193 193z m444-192l0 0 2-1 34 0 203 203c-5 7-10 14-16 21l-223-223z m-198 8l-220 219c-5-7-11-14-16-21l208-207 25 0c1 3 2 6 3 9z m73 23l0 8-1 2-40-41 1-1 9 0c6 14 17 25 31 32z m81-32l18 0 2 1-40 41-2-2 0-14c10-6 18-15 22-26z m-95 55c-18-9-32-23-40-41l0 0 41 40-1 1z m97 8c16-10 28-25 36-43l218 218c-1 1-2 3-3 4-11 13-23 25-36 37l-215-216z m-110 4l-214 214c-14-12-28-25-40-40l215-215c9 17 23 32 39 41z m66-4c-5 1-9 1-14 1-1 0-2 0-3 0l-6-6 0-8 12-13c1 0 2 0 3-1l13 14 0 8-5 5z m28 9l218 218c-7 6-14 11-21 16l-205-204 0-27c3-1 5-2 8-3z m-67 6l0 24-206 206c-7-5-14-10-21-16l217-217c3 1 7 2 10 3z m42 7l2-2 0 4-2-2z m-26-2l1 2-1 2 0-4z m28 300c-7 0-14 1-22 1-2 0-4 0-6-1l0-272 14-14 14 14 0 272z m-44 0c-68-5-134-28-191-65l191-192 0 257z m59-256l190 189c-25 17-52 30-81 41l-3-7-11-5-10-36-9 2 10 36-4 7 2 12c-27 8-55 14-84 16l0-255z" horiz-adv-x="1000" />

<glyph glyph-name="deporte-futbol" unicode="&#xe804;" d="M496 824c221-3 428-173 466-395 27-158-31-327-149-434-131-119-330-156-495-91-146 58-259 191-291 344-31 146 11 304 110 415 87 99 216 158 350 160 3 1 6 1 9 1z m334-763l-61 12-22 169c-52 6-103 15-154 22l-121-88 0-164 129-94c17 4 33 9 49 15 70 27 131 72 180 128z m-485-130l110 81 0 153-150 109c-42-11-83-22-125-32l-19-184-3-1c11-12 22-23 33-34 44-41 97-72 154-92z m-293 377l113-50c46 13 93 25 139 37l50 153c-16 47-30 94-44 140l-189-30-7 15c-28-45-48-95-57-147-7-39-8-79-5-118z m803 294l-22-44-183 29c-29-48-61-95-92-142l54-166 132-18 0 3 175 83 16-17c3 96-25 193-80 272z m-242 171c-40 11-81 17-123 17-52 0-103-11-151-30l-21-136c19-53 35-108 52-162l176 0c30 49 62 96 94 144l-27 167z" horiz-adv-x="1000" />

<glyph glyph-name="deporte-hockey" unicode="&#xe805;" d="M808 405l-51 0 106 381 29 0-84-381z m-27-123l-58 0 29 106 52 0-23-106z m-215-330l-24 126c86 28 139 112 176 187l59 0-6-28c-43-155-111-248-205-285m-93-17l-15-1-26 136 39-1 25-133c-7 0-15-1-23-1m-309-21c-78 0-80 34-80 47l-19 66c-9 36-4 47-1 51 1 1 3 4 12 4 5 0 11-1 18-3l43-1 32-164c-1 0-3 0-5 0l0 0z m213 157l38-1 26-137-37-3-27 141z m-55 2l38-1 27-143-36-3-29 147z m-55 1l38-1 29-148-38-3-29 152z m-57 2l40-1 30-154-40-3-30 158z m-56 2l39-2 31-159-38-3-32 164z m372-4l24-127c-12-4-24-7-37-9l-25 131c13 1 26 2 38 5m387 746l-76 0-149-540c-62-125-124-178-207-178-2 0-4 0-7 0l-374 10c-9 2-17 3-24 3-21 0-33-9-39-17-12-16-14-41-4-80l17-61c3-35 26-77 114-77l0 0c6 0 12 0 19 1l291 21c158 1 269 111 330 327l125 570-16 21z m-374-418c1-10-35-53-127-94-50-23-101-37-133-37-16 0-20 4-21 4l0 0-37 82c3 0 6-1 9-1 35 0 89 15 143 39 42 19 80 42 106 64 10 9 18 17 24 24l36-81z m-330-18c-1 10 35 53 127 94 50 23 101 37 133 37 16 0 21-4 21-4l5-10c-5-8-13-17-27-29-25-21-61-43-102-62-52-23-103-37-136-37-7 0-12 0-17 1l-4 10z m19-123c7-15 24-23 51-23 37 0 92 15 147 39 43 20 82 43 108 66 33 28 45 52 36 72l-50 110c-7 15-24 23-51 23-37 0-92-15-147-39-63-29-165-90-144-138l50-110z" horiz-adv-x="956" />

<glyph glyph-name="deporte-motor" unicode="&#xe806;" d="M888 226c-6 6-17 6-24 0l-27-28c-6-6-7-16-1-23 38-45 35-112-7-154-21-22-50-34-80-34-27 0-53 10-74 27-7 6-17 6-23-1l-27-27c-7-7-7-18 0-24l86-86c7-8 17-12 27-12 10 0 20 4 28 11l41 41c30 10 57 26 79 48 22 22 38 49 48 79l41 42c15 15 14 40-1 55l-86 86z m-540-213c-6 7-16 7-23 1-20-17-47-27-74-27-30 0-59 12-80 34-42 42-45 109-7 154 6 7 6 17-1 23l-27 28c-3 3-8 5-12 5-5 0-9-2-12-5l-86-86c-15-15-16-40-1-55l41-42c10-30 26-57 48-79 22-22 49-38 79-48l42-41c7-7 17-11 27-11 10 0 20 4 28 12l86 86c3 3 5 7 5 12 0 4-2 9-5 12l-28 27z m554 44c-7-26-21-50-40-69-19-19-43-33-68-40-3-1-5-2-7-4l-45-44c-3-3-5-3-7 0l-74 74 5 5c24-17 53-26 83-26 39 0 77 16 105 44 50 50 57 130 17 188l5 5 74-74c2-2 2-5 0-7l-44-45c-2-2-3-5-4-7z m-644-157l-45 44c-2 2-4 3-7 4-25 7-49 21-68 40-19 19-33 43-40 69-1 2-2 5-4 7l-44 45c-2 2-2 5 0 7l74 74 5-5c-39-58-33-138 18-188 28-28 65-44 104-44 30 0 59 9 84 26l4-5-74-74c-2-3-4-3-7 0z m381 151c-38 45-36 112 6 154 22 22 50 34 81 34 27 0 53-10 74-27 6-6 16-6 23 0l27 28c7 7 7 17 0 24l-71 71c-9 9-24 13-37 9l-72-21-20-7-43 39 71 76c5 6 6 15 0 22-22 28-48 53-75 76-7 5-16 5-22-1l-81-75-80 75c-7 6-16 6-23 0-27-22-53-48-75-75-6-6-6-16 0-22l71-77-41-38-94 28c-13 4-28 0-37-9l-71-71c-7-7-7-17 0-24l27-28c7-6 17-6 24 0 20 17 46 27 73 27 31 0 59-12 81-34 42-42 44-109 6-154-5-7-5-17 1-23l28-28c3-3 7-5 12-5 4 0 9 2 12 5l71 71c9 10 13 24 9 37l-29 93 36 38 33-37-28-94c-4-13 0-27 9-37l71-71c4-3 8-5 12-5 5 0 9 2 12 5l28 28c6 6 6 16 1 23z m-199 173c-7-9-10-21-7-32l28-94c1-1 0-2 0-3l-59-59-5 5c39 58 32 138-18 188-28 28-65 44-105 44-30 0-59-9-83-26l-5 5 59 59c0 0 1 1 3 0l94-28c11-3 23 0 32 8l42 39 61-66-37-40z m158-188l-58 59c-1 1-2 2-1 3l28 94c3 11 1 23-7 32l-202 219c15 17 32 34 50 50l218-202c9-8 21-11 32-8l95 29c1 0 2-1 2-1l59-59-5-5c-24 17-53 26-83 26-40 0-77-16-105-44-50-50-57-130-18-188l-5-5z m-513 470c0-4 2-9 5-12l126-126c3-3 7-5 12-5 1 0 2 0 3 1 5 1 10 4 12 9 22 45 57 92 100 135 43 43 89 77 134 99 5 2 9 7 10 12 1 6-1 11-5 15l-126 126c-6 6-18 6-24 0l-242-242c-3-3-5-7-5-12z m438 101c45-22 91-56 134-99 43-43 78-90 100-135 2-5 7-8 12-9 1-1 2-1 3-1 5 0 9 2 12 5l126 126c3 3 5 8 5 12 0 5-2 9-5 12l-242 242c-6 6-18 6-24 0l-126-126c-4-4-5-9-5-15 1-5 5-10 10-12z m119-164l-60-65-57 52 68 63c17-16 34-32 49-50z m-298 281l97-97c-41-24-83-56-122-95-40-39-72-81-95-123l-98 97 218 218z m312 0l218-218-98-97c-23 42-55 84-94 123-40 39-82 71-123 95l97 97z m-600-196c4-3 8-5 12-5 5 0 9 2 12 5l242 242c7 7 7 17 0 24l-30 30c-15 15-42 15-58 0l-208-208c-7-7-12-18-12-29 0-11 5-21 12-29l30-30z m864 0c3-3 7-5 12-5 4 0 9 2 12 5l30 30c8 8 12 18 12 29 0 11-5 22-12 29l-208 208c-16 16-42 16-58 0l-30-30c-3-3-5-7-5-12 0-4 2-9 5-12l242-242z m-195-2c13 0 25 6 35 15 19 19 19 50 0 69-19 18-51 18-69 0-19-19-19-50 0-69 9-9 21-15 34-15z m-450 0c13 0 25 6 34 15 20 19 20 50 0 69-18 18-50 18-69 0-19-19-19-50 0-69 10-9 22-15 35-15z m473 72c12-13 12-33 0-45-12-12-33-12-45 0-13 12-13 32 0 45 6 6 14 9 22 9 9 0 17-3 23-9z m-451 0c13-13 13-33 0-45-12-12-33-12-45 0-12 12-12 32 0 45 6 6 14 9 23 9 8 0 16-3 22-9z m445 202l208-208c1-1 2-3 2-5 0-2-1-4-2-5l-18-18-218 218 18 18c3 3 7 2 10 0z m-692-208l208 208c1 1 3 2 5 2 2 0 4-1 5-2l18-18-218-218-18 18c-1 1-2 3-2 5 0 2 1 4 2 5z" horiz-adv-x="1000" />

<glyph glyph-name="deporte-polo" unicode="&#xe807;" d="M691 38c-34 0-62 28-62 62 0 35 28 62 62 62 34 0 62-27 62-62 0-34-28-62-62-62m0 161c-55 0-99-44-99-99 0-54 44-98 99-98 54 0 98 44 98 98 0 55-44 99-98 99m343 446c-7 7-20 29-30 46-20 33-41 70-65 87 9 2 20 4 30 4 45 0 68-33 68-97 0-25-2-36-3-40m-149 72l-109-109-21 22-22 21 109 109c11 11 31 11 42 1l1-1c5-6 9-14 9-22 0-8-3-15-9-21m-634-607l-16 16 486 485 8-7 7-8-485-486z m43-94l-64-64-156 155 64 64 46-45 0 0 110-110z m6-71c-15-14-39-16-57-5l63 62c5-7 7-16 7-25 0-12-4-23-13-32m-232 233c8 8 20 13 32 13 9 0 17-3 25-7l-63-63c-12 18-10 41 6 57m901 622c-26 0-50-9-60-13-25 23-68 23-93-1l-135-135 14-14-485-485-52 52c-31 31-85 31-116 0-32-32-32-84 0-116l168-168c16-16 36-24 58-24 22 0 42 8 58 24 15 15 24 36 24 57 0 22-9 43-24 58l-49 50 485 485 14-14 135 135c12 13 19 30 19 47 0 10-2 19-6 28 21-10 46-54 64-85 22-38 34-56 47-56 17 0 20 23 20 60 0 100-54 115-86 115" horiz-adv-x="1073" />

<glyph glyph-name="flecha-abajo-filtros" unicode="&#xe808;" d="M845-76c-31-8-65-3-95 24-212 203-419 410-622 622-66 76-19 211 97 209 30-1 57-12 80-32 180-172 356-348 529-526 174 178 350 354 530 526 25 22 57 33 91 32 96-7 151-134 85-209-202-212-409-419-621-622-22-19-48-26-74-24z" horiz-adv-x="1667" />

<glyph glyph-name="flecha-arriba-filtros" unicode="&#xe809;" d="M766 758c19 14 44 22 73 21l3 0c2 0 4 0 6 0 27-4 51-14 71-32 212-203 419-410 622-622 84-97-67-273-177-177-179 172-356 348-529 526-173-178-350-354-529-526-97-84-273 68-177 177 202 212 410 419 622 622 4 4 10 8 15 11z" horiz-adv-x="1667" />

<glyph glyph-name="flecha-derecha-carusel" unicode="&#xe80a;" d="M366 350c-111-107-219-216-325-326-13-16-21-28-20-57 5-58 83-93 129-52 131 125 259 253 384 383 11 13 16 30 15 46 4 19 1 40-15 58-125 131-253 259-384 384-46 40-130 6-129-60 1-18 8-35 20-49 106-111 214-220 325-327z" horiz-adv-x="571" />

<glyph glyph-name="flecha-derecha-migas" unicode="&#xe80b;" d="M132 751c-28-28-28-73 0-101l300-300-300-300c-28-28-28-73 0-101 28-27 73-27 101 0l350 351c14 14 21 32 21 50 0 18-7 36-21 50l-350 351c-28 27-73 27-101 0" horiz-adv-x="714" />

<glyph glyph-name="flecha-izquierda-carusel" unicode="&#xe80c;" d="M206 350c110-107 218-216 324-326 14-16 21-28 20-57-4-58-82-93-129-52-130 125-258 253-383 383-12 13-16 30-15 46-5 19-1 40 15 58 125 131 253 259 383 384 46 40 130 6 129-60-1-18-8-35-20-49-106-111-214-220-324-327z" horiz-adv-x="571" />

<glyph glyph-name="flecha-top" unicode="&#xe80d;" d="M807 721c17-2 30-8 43-18 206-190 396-396 594-594 55-59-41-166-106-106l-536 537-537-537c-35-32-45-24-65-21-53 9-80 79-45 123 190 206 396 396 593 594 17 15 37 23 59 22z" horiz-adv-x="1600" />

<glyph glyph-name="formulario-icono-documento" unicode="&#xe80e;" d="M26-108l0 914 451 0 191-191 0-723-642 0z m451 914l191-191-191 0 0 191z m17-202c84-3 139-17 167-41l0 62-167-21z" horiz-adv-x="692" />

<glyph glyph-name="agregar" unicode="&#xe80f;" d="M475 374l0 404c1 16 13 27 30 25 18-4 20-15 20-25l0-404 404 0c1 0 2 0 3 0 26-4 31-48-3-50l-404 0 0-404c-1-26-48-36-50 0l0 404-404 0c-26 2-38 48 0 50l404 0z" horiz-adv-x="1000" />

<glyph glyph-name="atencion-formulario" unicode="&#xe810;" d="M1401-130l-1362 0c-24 1-29 13-30 30l0 206c1 16 8 28 30 30l1362 0c2 0 3 0 4 0 21-5 25-14 26-30l0-206c-1-16-8-29-30-30z m-1332 206l0-146 1302 0 0 146c-434 0-868 0-1302 0z m1332 141l-1362 0c-24 2-29 13-30 30l0 206c1 23 13 29 30 30l1362 0c2 0 3 0 4 0 21-4 25-14 26-30l0-206c-1-16-8-28-30-30z m-1332 206l0-146 1302 0 0 146c-434 0-868 0-1302 0z m1332 141l-1362 0c-17 1-29 8-30 30l0 206c1 23 13 29 30 30l1362 0c2 0 3 0 4 0 21-4 25-13 26-30l0-206c-1-16-8-28-30-30z m-1332 60l1302 0 0 146-1302 0c0-49 0-97 0-146z m1232 130c17-1 28-22 18-36-26-35-56-84-82-66-12 10-27 18-31 29-7 18 16 39 34 26l7-5c18 22 33 52 54 52z" horiz-adv-x="1440" />

<glyph glyph-name="atencion-mail" unicode="&#xe811;" d="M1395-130l-1350 0c-16 1-29 8-30 30l0 900c2 23 13 29 30 30l1350 0c1 0 3 0 4 0 21-4 25-13 26-30l0-900c-1-23-13-29-30-30z m-1320 60l1290 0 0 840-1290 0c0-280 0-560 0-840z m65 809c5-1 7 0 17-7l556-478 572 480c17 10 23 6 31 1 17-9 20-34 5-49l-589-494c-19-14-30-7-39 0l-575 494c-19 19-8 54 22 53z" horiz-adv-x="1440" />

<glyph glyph-name="buscar-gris" unicode="&#xe812;" d="M119 395c0 201 163 364 364 364 200 0 364-163 364-364 0-201-164-364-364-364-201 0-364 163-364 364m889-466l-181 181c64 77 103 177 103 285 0 247-201 447-447 447-247 0-447-200-447-447 0-246 200-447 447-447 108 0 207 39 285 103l181-181c8-8 19-12 29-12 11 0 22 4 30 12 16 16 16 43 0 59" horiz-adv-x="1056" />

<glyph glyph-name="cookies" unicode="&#xe813;" d="M461 849c0-1-1-1-2-2-10-2-17-3-26-3-7 0-13-1-16-2-2-1-9-2-15-3-8-1-13-2-16-3-3-2-6-3-10-3-4 0-7 0-9-2-2-1-5-2-8-2-3 0-7-1-11-3-3-2-7-4-9-4-2 0-5-1-6-2-2-1-5-2-7-2-2 0-5-1-7-3-2-2-5-3-7-3-1 0-4-1-5-2-2-1-5-2-7-3-3 0-5-1-6-3-1-1-3-2-5-2-1 0-4-1-7-3-3-2-6-3-7-3-2 0-3-1-3-2-1 0-3-2-6-3-7-4-21-11-23-13-2-1-3-2-4-3-1 0-8-4-15-9-23-15-30-21-38-28-3-3-9-7-13-11-9-7-44-42-56-56-4-5-8-10-9-11-5-5-29-40-34-49-1-2-4-7-7-11-3-4-5-7-5-8 0-1-1-3-3-6-3-5-13-27-13-28 0-1-1-2-2-2-1-1-2-3-2-5-1-2-2-6-3-8-3-5-13-33-13-34 0-1-2-6-4-10-2-5-3-10-3-12 0-1-1-4-2-6-2-6-7-28-8-37-1-4-2-10-2-12-2-5-4-19-4-24 0-2 0-8-1-13-3-13-3-78 0-94 1-7 2-17 3-22 0-5 1-11 2-13 0-2 1-6 1-9 1-9 7-36 9-39 1-2 2-5 2-6 0-2 2-9 4-16 3-7 5-15 6-17 1-2 2-6 4-10 1-3 3-6 3-7 0-1 2-6 10-24 3-5 5-11 6-12 1-2 2-4 2-5 1-1 2-2 2-3 0-1 2-3 3-5 1-2 2-4 3-5 0-1 1-3 1-4 1 0 2-2 2-3 1-1 3-5 6-9 2-4 5-8 5-9 2-3 12-18 16-24 1-1 6-7 9-12 4-5 11-14 16-20 10-12 49-51 55-55 2-2 6-4 7-6 10-9 21-18 23-18 0 0 3-2 6-5 3-2 5-4 6-4 0 0 2-1 4-2 5-5 21-15 23-15 0 0 1 0 2-1 0-1 4-4 9-6 4-2 11-6 14-7 3-2 6-4 6-4 1-1 3-2 4-2 1 0 4-1 5-2 2-1 5-3 7-3 2-1 5-3 5-4 1-1 3-2 6-2 4 0 5-1 7-3 2-2 4-2 7-2 2 0 4-1 6-3 1-1 4-2 6-2 2 0 5-1 7-3 3-2 5-2 9-2 3 0 5-1 7-3 1-1 5-2 10-3 4-1 8-2 9-3 2-1 4-2 9-2 6 0 8-1 11-3 3-2 5-3 14-3 7 0 12-1 15-2 4-2 7-2 15-2 6 0 15-1 22-3 11-2 14-2 50-2 25 1 40 1 43 2 6 2 19 3 23 2 2-1 4 0 8 1 7 3 18 5 24 4 3 0 4 0 8 2 5 4 9 5 12 4 3-1 4-1 8 1 3 2 7 3 11 4 5 0 8 1 10 3 2 2 4 3 7 3 4 0 6 0 8 2 2 2 4 3 7 3 3 0 5 1 6 2 1 2 3 3 6 2 3 0 4 1 6 3 2 2 3 3 7 3 3 0 5 0 7 3 2 2 4 3 6 3 2 0 4 1 5 2 2 2 4 3 6 3 2 0 4 1 5 2 1 2 3 3 5 3 2 1 4 2 5 2 1 2 12 8 14 8 0 0 2 1 3 2 2 2 4 3 4 3 1 0 3 1 5 3 2 1 6 4 10 6 3 2 7 4 7 5 0 0 2 2 5 4 2 1 5 3 5 4 1 1 3 2 4 2 2 1 6 3 9 6 7 7 22 19 24 19 1 0 47 46 49 50 1 2 5 6 7 9 11 13 16 18 18 21 1 2 4 7 7 10 3 4 7 10 9 14 2 4 6 10 9 14 6 9 17 29 25 46 2 4 4 9 5 11 1 1 2 3 2 5 0 1 0 3 1 3 1 1 2 4 3 6 1 3 2 7 3 8 3 7 8 19 8 23 1 4 5 17 8 25 1 2 2 6 2 10 1 3 2 9 4 13 1 4 2 12 3 17 0 5 1 10 2 11 0 1 1 6 2 12 1 15 4 32 5 34 3 2 3 68 0 70 0 0-2 5-3 11-4 12-8 17-18 19-6 1-17-2-20-5-1-1-3-2-4-2-2 0-5-2-8-4-4-2-6-3-8-3-1 1-5 0-8-1-5-2-8-3-16-2-6 0-12 1-15 2-2 1-5 2-7 2-3-1-4 0-7 2-2 2-5 4-6 4-3 0-5 1-15 9-3 3-5 5-6 5 0 0-3 3-5 6-2 2-4 5-5 6-1 1-4 7-7 13-4 8-7 12-11 14-4 4-5 4-13 4-8 0-9 0-11-2-1-1-4-2-6-3-2 0-5-2-7-3-2-2-5-3-8-3-2 0-5-1-7-2-2-2-4-2-7-2-3 0-8-1-12-3-14-4-32-4-45 1-2 1-6 2-9 2-3-1-7 0-11 2-3 2-6 3-8 3-1 0-5 2-7 3-2 2-5 3-6 3-1 0-2 0-3 1 0 1-3 2-5 4-3 1-7 3-8 5-1 1-3 2-4 2-3 0-28 25-32 32-2 4-4 8-6 9-1 1-2 3-2 4 0 1 0 2-1 2-1 1-4 8-7 15-4 8-7 21-8 27 0 3-1 9-2 12-2 7-2 22-1 29 1 3 2 9 3 14 1 6 3 12 4 15 1 3 2 6 2 7 0 1 2 6 5 12 5 9 5 11 5 18 0 7 0 9-3 13-3 4-6 6-13 9-10 5-12 6-18 12-3 2-6 5-7 5 0 0-2 2-4 5-2 2-4 5-5 6-3 3-7 9-8 13-1 3-2 5-3 6-1 1-2 4-2 6 0 3-1 7-2 10-2 7-2 21 0 29 1 3 2 6 2 8 0 1 2 6 5 12 9 18 10 21 6 31-3 9-8 13-17 14-9 1-12 2-11 3 0 1-14 1-36 1-23 0-36 0-35-1z m31-48c15 1 16 1 17-1 0-2-1-4-2-7-4-8-5-10-6-17-1-8 1-37 3-42 1-1 2-4 2-5 0-3 12-28 17-32 2-3 5-7 8-10 4-6 20-19 26-23 5-3 5-5 2-14-1-4-3-11-5-16-1-4-2-10-3-12-4-9-4-62 1-77 7-25 7-27 16-44 3-7 9-17 11-19 1-1 3-4 4-6 3-5 37-40 42-42 2-1 5-3 7-5 6-4 8-5 14-8 3-2 6-4 7-4 0-1 2-1 3-1 1 0 4-2 6-3 2-2 5-3 6-3 2 0 5-1 7-2 2-2 7-3 10-3 3 0 8-2 11-3 5-3 5-3 39-3l34 0 5 3c4 2 6 3 10 2 4-1 5 0 8 2 1 2 4 3 8 4 3 0 6 1 6 1 3 1 5-1 10-7 10-14 26-29 37-36 2-1 4-3 6-4 2-1 4-2 5-2 1 0 3-1 5-2 2-2 6-3 9-4 2 0 6-1 7-3 3-1 5-2 23-2 11 0 21 0 22 0 1-1 2 0 4 2 2 3 13 7 15 6 2-1 3-6 3-18-1-18-3-47-4-50-1-2-2-10-2-17-1-7-2-13-3-13 0-1-1-6-2-11-1-5-3-12-4-14-1-3-2-7-2-10 0-3-1-6-2-7 0 0-2-4-3-8-1-4-2-8-3-9-1-2-1-4-1-5 0-1-2-6-4-10-2-4-3-7-3-8 0-1-1-3-2-5-2-3-3-5-3-6 0-1-1-4-3-7-1-3-3-7-3-8-8-15-11-21-12-22-1-1-3-4-5-8-7-14-29-46-42-61-4-4-9-10-11-14-6-7-26-28-34-34-3-3-11-9-17-14-12-10-25-20-38-28-5-3-10-7-13-9-2-1-7-4-10-6-4-1-7-3-8-4-1-1-2-2-3-2-1 0-3-1-5-3-3-1-5-2-7-2-1 0-3-2-5-3-2-2-4-3-5-3-1 0-4-1-6-3-2-1-5-3-7-3-1 0-3-1-5-2-2-2-4-3-7-3-1 0-5-1-7-3-3-1-6-3-8-3-2 0-5-1-7-2-2-1-5-2-6-2-2 0-7-2-11-4-4-2-8-3-9-2-1 0-4-1-7-2-3-2-7-3-12-3-4 0-9-1-12-2-3-2-8-3-14-3-5-1-10-1-12-2-8-2-19-3-48-4-38 0-68 1-80 4-4 1-9 2-10 2-3-1-15 1-19 3-2 1-6 2-10 2-5 0-8 1-12 3-2 1-5 2-7 2-1 0-4 0-8 2-3 2-7 3-10 4-2 0-6 1-8 2-2 1-5 2-6 2-2 0-5 2-8 3-3 2-6 3-8 3-3 0-5 1-8 3-2 2-5 4-7 4-1 0-4 1-5 2-2 1-4 2-5 2-1 0-3 1-5 3-2 1-4 3-6 3-1 0-4 1-5 2-2 2-5 3-6 3-1 0-2 1-3 2-1 1-4 3-7 4-3 2-7 4-9 5-2 2-6 4-8 6-7 4-8 4-18 11-5 4-11 9-14 11-3 2-10 7-15 12-5 5-11 9-12 10-5 3-32 30-36 36-2 3-5 7-7 9-6 6-34 44-34 46 0 0-2 4-5 8-3 4-7 10-9 14-1 3-3 6-4 7-1 1-2 2-2 3 0 1-1 3-1 3-2 2-16 31-16 33 0 1 0 3-1 3-1 1-2 3-3 5 0 2-1 6-3 9-2 3-3 7-3 8 0 1-1 5-3 8-1 3-2 6-2 8 0 1-1 4-3 7-1 2-2 5-2 7 0 2-1 7-2 11-2 5-3 11-4 14 0 4-1 8-2 10-1 1-2 8-2 15-1 7-2 14-3 17-1 4-3 34-3 56 0 19 2 51 3 57 1 3 2 10 3 16 0 6 1 13 2 15 1 3 2 9 3 14 1 5 3 11 4 13 1 2 1 6 1 7 0 2 1 6 2 8 1 3 3 7 3 9 0 2 2 6 3 8 1 3 2 5 2 7 0 1 2 5 4 9 1 4 3 7 3 8 0 1 1 3 1 4 1 1 2 3 3 5 1 5 16 35 19 39 2 3 4 5 4 6 0 0 3 6 7 13 5 7 10 15 12 19 3 3 6 8 8 11 3 3 6 7 9 11 3 5 8 11 12 14 1 1 4 5 7 9 8 10 29 31 36 35 2 2 6 5 8 7 5 6 12 12 17 15 3 2 9 6 13 9 13 10 19 14 20 14 1 0 3 2 5 3 5 4 10 7 13 7 1 0 4 2 5 3 2 3 3 4 4 3 2 0 3 1 5 2 2 2 4 3 6 3 3 0 4 1 5 3 2 2 3 3 6 3 3 0 4 1 5 3 2 2 3 2 6 2 4 0 5 1 7 3 2 3 3 3 7 3 4 0 5 0 8 3 1 1 5 3 7 3 2 1 6 2 9 3 2 1 6 2 8 2 2 0 5 1 7 3 3 2 5 3 9 3 3-1 6 0 10 2 6 3 11 4 13 2 1-1 2-1 6 2 5 2 7 3 14 3 5 0 14 2 19 3 11 2 36 4 43 3 2 0 7 0 10 0z m-94-219c-8-5-10-8-14-16-7-14-5-26 6-38 3-3 7-6 9-7 3-1 5-3 6-4 1-1 5-1 10-1 7 0 8 0 10 2 1 1 3 2 5 2 4 0 11 6 16 15 3 4 3 5 3 16 0 8 0 13-1 15-3 5-8 11-14 15l-6 5-13 0c-12 0-12-1-17-4z m-152-116c-2-2-5-3-8-3-2 0-5-1-7-2-1-1-4-2-5-3-5-2-18-13-22-19-6-7-9-15-11-21 0-3-1-7-2-9-3-6-3-18 0-26 1-3 2-7 2-8 0-1 2-5 4-9 3-6 6-10 15-19 6-6 12-11 13-11 1 0 3-2 4-3 3-3 4-3 8-3 4 0 6 0 9-2 2-2 4-2 15-2 11 0 12 0 14 2 2 2 3 2 6 2 5-1 9 0 11 4 1 1 2 2 4 2 1 0 7 5 13 11 9 9 13 13 15 19 2 4 4 8 4 9 0 1 1 4 2 7 3 7 3 23 0 29-1 3-3 8-3 11-1 3-2 6-3 7-1 1-2 2-2 3 0 3-19 22-25 25-2 2-6 4-8 5-3 2-5 2-7 2-2-1-4 0-7 1-5 4-24 4-29 1z m231-95c-1-1-3-2-4-2-6 0-13-7-18-17-3-6-3-7-3-16 1-12 2-15 12-25l8-7 9-1c11-1 19 0 23 4 1 1 3 2 3 2 3 0 10 9 11 13 1 3 2 5 3 6 2 1 2 18 0 19-1 1-2 3-4 6-3 7-10 13-15 15-2 1-4 2-5 3-1 2-19 2-20 0z m-179-166c-3-1-6-2-8-3-2-1-4-2-5-2-2 0-16-14-19-21-3-6-3-8-4-19 0-12 1-18 6-26 3-5 15-16 17-16 1 0 3-1 4-3 2-2 3-2 18-2 15 0 17 0 19 2 1 1 4 2 5 2 2 0 15 13 18 18 4 6 6 14 6 22 0 8-2 19-4 22-1 1-2 3-3 4-1 3-14 16-18 18-1 0-4 1-5 2-3 2-16 2-27 2z m318-25c-2-1-5-2-7-2-3 0-5-1-6-2-1-1-3-2-5-3-4-3-15-13-16-16 0-1-2-4-4-6-1-2-2-5-2-6 0-1-2-5-3-8-4-9-4-18 0-31 5-13 8-17 18-27 7-7 10-9 11-8 2 0 4-1 6-2 2-3 3-3 21-4 19 0 19 0 22 3 2 2 4 3 6 4 7 2 15 8 20 16 9 15 12 28 10 46-1 5-2 11-3 12-1 0-2 3-3 5-2 5-14 18-22 23-3 2-7 4-10 4-2 1-5 2-7 3-2 1-7 1-13 1-8 0-10 0-13-2z m181 669c0-2-4-5-7-5-2 0-5-1-7-3-2-1-5-4-7-5-3-2-10-13-10-16 0-1-1-3-3-5-3-6-3-22 0-27 2-1 3-4 3-5 0-4 7-13 13-19 5-4 7-5 10-5 2 0 5-1 7-3 3-1 5-2 11-2 7-1 8-1 12 2 3 2 5 3 7 2 3 0 4 1 10 6 9 8 14 14 15 20 1 3 2 5 3 6 2 2 2 21 0 23-1 1-2 4-3 7-3 9-9 16-21 24-1 1-3 1-4 1-2-1-6 1-6 3 0 2-2 2-12 2-6 0-11 0-11-1z m-34-192c-1-1-5-3-7-3-5-2-11-8-15-16-2-3-3-6-3-16 1-11 1-11 5-17 2-3 6-8 10-11 5-4 6-5 12-5 12-1 21 0 25 3 7 5 12 11 13 15 1 2 2 5 4 7 3 5 3 14-1 20-2 3-4 6-4 7 0 2-7 9-15 13-7 4-9 5-15 5-4 0-7-1-9-2z m209-71c-7-1-8-1-11-5-6-6-10-12-10-18 0-5 2-9 9-17 3-4 4-4 11-4 4 0 9-1 10-1 3-1 4 0 10 7 3 4 7 8 8 8 1 0 1 2 1 8 0 7 0 8-2 8-1 0-3 2-4 3-3 5-10 12-12 11-1 0-5 0-10 0z" horiz-adv-x="1000" />

<glyph glyph-name="play" unicode="&#xe814;" d="M772 333l-741-412q-13-7-22-2t-9 20v822q0 14 9 20t22-2l741-412q13-7 13-17t-13-17z" horiz-adv-x="785.7" />

<glyph glyph-name="scroll-down" unicode="&#xe815;" d="M480 109c-8 8-19 8-26 0l-189-189v912c0 11-8 18-19 18s-18-7-18-18v-912l-189 189c-8 8-19 8-26 0s-7-18 0-25l221-221c1-2 3-4 5-4 2-2 6-2 7-2s6 0 8 2c2 2 3 2 5 4l221 221c7 7 7 18 0 25z" horiz-adv-x="493" />

<glyph glyph-name="link" unicode="&#xe816;" d="M922 397l-187-188c-104-103-272-103-376 0-16 17-29 35-40 54l87 87c4 4 9 7 14 9 6-20 17-40 33-56 52-52 136-52 188 0l187 188c52 52 52 136 0 187-51 52-135 52-187 0l-67-66c-54 21-112 26-169 18l142 142c104 104 272 104 375 0 104-103 104-271 0-375z m-496-309l-67-66c-51-52-136-52-187 0-52 51-52 136 0 187l187 188c52 52 136 52 188 0 16-16 27-36 33-56 5 3 10 5 14 9l87 87c-11 19-24 37-40 54-104 103-272 103-376 0l-187-188c-104-104-104-272 0-375 103-104 271-104 375 0l142 142c-56-8-115-3-169 18z" horiz-adv-x="1000" />

<glyph glyph-name="ru-ok" unicode="&#xe817;" d="M290 699c59 0 107-48 107-107 0-59-48-107-107-107-59 0-107 48-107 107 0 59 48 107 107 107l0 0 0 0z m0-365c142 0 258 116 258 258 0 142-116 258-258 258-142 0-258-116-258-258 0-142 116-258 258-258l0 0z m104-211c53 12 104 33 150 62 35 23 46 69 24 105-22 35-69 46-104 24-106-67-242-67-348 0-35 22-82 11-104-24-22-36-12-82 24-105 46-29 97-50 149-62l-144-144c-29-30-29-77 0-107 15-15 34-22 54-22 19 0 38 7 53 22l142 142 142-142c29-29 77-29 107 0 29 30 29 78 0 107l-145 144 0 0z" horiz-adv-x="580" />

<glyph glyph-name="cross" unicode="&#xe829;" d="M501 427c110 107 221 215 330 323 10 10 15 15 37 15 39-3 61-51 36-83-106-114-215-224-326-333 108-110 215-221 324-330 35-38-20-112-68-73-114 106-225 215-334 326-110-107-221-214-329-323-37-34-116 15-74 68 106 114 216 224 326 333-107 110-214 221-323 330-29 31-13 89 41 85 10-2 19-6 27-12 114-106 224-215 333-326z" horiz-adv-x="1000" />

<glyph glyph-name="tick" unicode="&#xe82a;" d="M1148 775c39-6 57-55 30-85l-767-766-326 327c-31 41 25 112 74 67l252-252 699 698c17 13 17 13 38 11z" horiz-adv-x="1267" />

<glyph glyph-name="comparar" unicode="&#xe82b;" d="M270 14c-111 0-201 90-201 200l0 322c-29 15-49 45-49 80 0 50 41 91 91 91 50 0 91-41 91-91 0-35-20-65-49-80l0-322c0-64 52-117 117-117l86 0-60 67c-15 17-14 43 3 59 18 15 44 14 59-3l123-137c14-16 14-40 0-56l-123-136c-8-9-19-14-31-14-10 0-20 4-28 11-17 15-18 42-3 59l60 67-86 0z m439 152l0 320c0 110-90 200-201 200l-87 0 60 67c15 17 14 44-3 59-17 15-44 14-59-3l-123-136c-14-16-14-40 0-56l123-137c8-9 20-13 31-13 10 0 20 3 28 10 17 16 18 42 3 59l-60 67 87 0c65 0 117-53 117-117l0-320c-29-15-49-45-49-80 0-50 41-91 91-91 50 0 90 41 90 91 0 35-20 65-48 80z" horiz-adv-x="778" />

<glyph glyph-name="descarga-dibujo" unicode="&#xe82c;" d="M943 832c10 0 17-7 17-16l0-676c0-1 0-2-1-3 0-1 0-2 0-3-1-2-2-3-2-4-1 0-1-1-2-2l-239-255c0 0-1 0-1 0-3-3-7-5-12-5l-676 0c-9 0-16 7-16 16l0 676c0 1 0 2 0 3 0 1 0 2 1 3 0 2 1 3 2 4 0 0 1 1 1 2l240 255c0 0 0 0 0 0l0 0c0 0 0 0 0 0 1 1 2 2 4 3 0 0 1 1 2 1 0 0 1 0 2 1 1 0 2 0 4 0 0 0 0 0 0 0l676 0z m-257-681c1 0 1 0 1 0l0 393-403 0 0-7c0-6-5-11-11-11-6 0-11 5-11 11l0 7-218 0 0-634c2 0 5 0 6-2 2-2 3-5 3-7l634 0 0 228c0 0 0 0-1 0l-22 0c-6 0-11 5-11 11 0 6 5 11 11 11l22 0z m-605-196l-16-16c-4-4-4-11 1-15 2-2 4-3 7-3 3 0 6 1 8 3l15 16c5 4 5 11 0 16-4 4-11 4-15-1z m672 196c6 0 11-5 11-11 0-6-5-11-11-11l-23 0c-4 0-8 3-10 7l0-210 198 211c0 1 0 2 0 3 0 5 4 9 9 10l0 627-207-220 0-414c2 4 6 8 10 8l23 0z m-627-148l-15-16c-4-4-4-11 0-15 3-2 5-3 8-3 3 0 6 1 8 3l15 16c5 4 4 11 0 15-4 5-11 5-16 0z m46 48l-15-16c-4-4-4-11 0-16 2-2 5-3 8-3 3 0 6 1 8 4l15 16c4 4 4 11 0 15-4 4-11 4-16 0z m46 48l-15-16c-4-5-4-12 0-16 2-2 5-3 8-3 3 0 6 1 8 3l15 16c4 5 4 12 0 16-5 4-12 4-16 0z m60 30l-13-14c-2-2-5-3-8-3-3 0-6 1-8 3-4 4-4 11 0 15l7 8c0 1 0 1 0 2 0 4 3 7 6 9l0 13c0 6 5 11 11 11 6 0 11-5 11-11l0-11 5 0c6 0 11-5 11-11 0-6-5-11-11-11l-11 0z m541 22c6 0 11-5 11-11 0-6-5-11-11-11l-22 0c-6 0-11 5-11 11 0 6 5 11 11 11l22 0z m66 0c6 0 11-5 11-11 0-6-5-11-11-11l-22 0c-6 0-11 5-11 11 0 6 5 11 11 11l22 0z m-265 0c6 0 11-5 11-11 0-6-5-11-11-11l-22 0c-6 0-11 5-11 11 0 6 5 11 11 11l22 0z m-132 0c6 0 11-5 11-11 0-6-5-11-11-11l-22 0c-6 0-11 5-11 11 0 6 5 11 11 11l22 0z m-66 0c6 0 11-5 11-11 0-6-5-11-11-11l-22 0c-7 0-11 5-11 11 0 6 4 11 11 11l22 0z m132 0c6 0 11-5 11-11 0-6-5-11-11-11l-22 0c-6 0-11 5-11 11 0 6 5 11 11 11l22 0z m-199 0c7 0 11-5 11-11 0-6-4-11-11-11l-22 0c-6 0-11 5-11 11 0 6 5 11 11 11l22 0z m-82 44c6 0 11 5 11 11l0 22c0 6-5 11-11 11-6 0-11-5-11-11l0-22c0-6 5-11 11-11z m0 66c6 0 11 5 11 11l0 22c0 6-5 11-11 11-6 0-11-5-11-11l0-22c0-6 5-11 11-11z m0 66c6 0 11 5 11 11l0 22c0 6-5 11-11 11-6 0-11-5-11-11l0-22c0-6 5-11 11-11z m0 66c6 0 11 5 11 11l0 22c0 7-5 11-11 11-6 0-11-4-11-11l0-22c0-6 5-11 11-11z m0 67c6 0 11 4 11 11l0 22c0 6-5 11-11 11-6 0-11-5-11-11l0-22c0-7 5-11 11-11z m421 117l208 222-618 0c-1-5-6-9-11-9-2 0-4 1-5 2l-202-215 628 0z m-421 59c-6 0-11-5-11-11l0-22c0-6 5-11 11-11 6 0 11 5 11 11l0 22c0 6-5 11-11 11z m0 66c-6 0-11-5-11-11l0-22c0-6 5-11 11-11 6 0 11 5 11 11l0 22c0 6-5 11-11 11z m0 66c-6 0-11-5-11-11l0-22c0-6 5-11 11-11 6 0 11 5 11 11l0 22c0 6-5 11-11 11z" horiz-adv-x="971" />

<glyph glyph-name="descarga-ficha" unicode="&#xe82d;" d="M182 431l21 69c2 4 3 9 5 14l7 0c1-5 2-10 4-14l22-69-59 0z m41 100l-23 0c-4 0-8-3-9-6l-55-167 23 0 17 54 71 0 17-54 22 0-55 167c-1 3-4 6-8 6m-41-387l21 69c2 4 3 9 5 14l7 0c1-5 2-10 4-14l22-69-59 0z m41 100l-23 0c-4 0-8-3-9-6l-55-167 23 0 17 54 71 0 17-54 22 0-55 167c-1 3-4 6-8 6m149 271l-11 0 0-31-33 0 0-11 33 0 0-32 11 0 0 32 33 0 0 11-33 0 0 31z m0-287l-11 0 0-31-33 0 0-11 33 0 0-32 11 0 0 32 33 0 0 11-33 0 0 31z m99 287l-11 0 0-31-33 0 0-11 33 0 0-32 11 0 0 32 33 0 0 11-33 0 0 31z m378-477c8-22 5-46-8-64-13-19-34-30-57-30 0 0 0 0 0 0l-42 0c-30 0-58 16-74 41-16 25-18 57-6 84l95 206 92-237z m-372 644l15 0c-2-9-10-16-20-16-12 0-21 10-21 22 0 9 5 16 13 19-2-2-3-5-3-9 0-9 7-16 16-16m81-6l0-66-482 0 0 66c0 62 50 113 112 113l257 0c49 0 90-32 106-75l-34 0c-9 15-26 26-45 26-29 0-53-23-53-52 0-29 24-53 53-53 27 0 49 21 52 47l33 0c0-2 1-4 1-6m-113-765l-257 0c-62 0-112 51-112 113l0 554 482 0 0-554c0-62-51-113-113-113m438 754c-19 31-53 49-89 49l-210 0c-17 61-73 106-139 106l-257 0c-79 0-144-64-144-144l0-652c0-80 65-144 144-144l257 0c80 0 144 64 144 144l0 652c0 2 0 4 0 6l205 0c26 0 49-12 63-34 14-21 16-48 5-71l-228-495c-17-37-14-79 8-114 22-34 59-55 100-55l42-1 0 0c33 0 64 17 83 44 19 27 23 62 11 93l-102 266 114 249c16 33 13 71-7 101" horiz-adv-x="944" />

<glyph glyph-name="descarga-guia" unicode="&#xe82e;" d="M611-135c-4 0-8 0-12 0-44 2-84 16-113 40-29-24-69-38-113-40-54-3-107 12-146 39-41 28-53 73-54 95-1 12 2 19 7 24 6 4 11 5 15 5 11 0 18-7 24-14 8-8 15-16 30-16 30 1 57 19 83 37 28 18 57 37 89 39 22 1 46-5 65-17 17 11 38 17 59 17l6 0c32-2 61-21 89-39 26-18 54-36 81-37l0 0c17 0 25 8 32 16 6 7 13 14 24 14 4 0 9-1 15-5 5-4 8-12 8-24-1-22-13-67-55-95-35-25-84-39-134-39z m-125 77l0 0c4 0 8-2 11-5 25-24 61-39 103-41 67-3 112 23 127 33 22 16 33 37 38 53-9-8-23-16-42-16 0 0-3 0-4 1-35 1-66 21-96 41-26 17-50 33-73 34l-5 0c-18 0-36-5-49-16-6-5-14-5-20 0-13 11-31 16-49 16l-4 0c-24-1-48-17-73-34-30-20-61-40-97-42 0 0-3 0-4 0-19 0-32 8-42 16 5-16 16-37 38-53 15-10 61-36 127-33 42 2 79 17 103 41 3 3 7 5 11 5z m0 184c-187 0-234 11-241 13-12 5-21 16-22 27l-12 247-20 2c-102 11-170 80-170 171 0 98 80 164 198 164 21 0 41-3 60-8l20-5 10 13c39 54 105 85 177 85 73 0 139-31 177-84l10-14 19 5c20 5 40 8 61 8 119 0 199-66 199-164 0-91-69-160-171-171l-20-2-12-247c-1-12-10-22-22-24-10-2-98-16-241-16z m-231 41c6 0 53-10 231-10 129 0 214 12 232 15l12 256c0 8 6 14 14 15l34 4c85 9 142 65 142 139 0 79-67 132-167 132-18 0-36-2-53-7l-29-8c-7-1-13 1-17 6l-17 23c-32 45-88 72-151 72-62 0-119-27-152-72l-16-23c-4-5-10-7-17-6l-30 8c-16 5-34 7-52 7-100 0-167-53-167-132 0-74 57-130 142-139l34-4c8-1 14-7 14-15l13-261c0 0 0 0 0 0z" horiz-adv-x="972" />

<glyph glyph-name="descarga-imagenes" unicode="&#xe82f;" d="M1126-129l-1085 0c-10 0-19 9-19 19l0 920c0 10 9 19 19 19l1085 0c10 0 18-9 18-19l0-920c0-10-8-19-18-19z m-19 920l-1047 0 0-882 1047 0 0 882z m-73-737l-901 0c-10 0-19 8-19 18l0 650c0 10 9 19 19 19l901 0c10 0 18-9 18-19l0-650c0-10-8-18-18-18z m-19 649l-863 0 0-612 863 0 0 612z" horiz-adv-x="1167" />

<glyph glyph-name="descarga-pdf" unicode="&#xe830;" d="M290-89l0 136 366 0c9 0 16 7 16 15l0 271c0 9-7 16-16 16l-366 0 0 440 417 0 0-174c0-9 7-16 16-16l76 0c45-6 77-16 98-30l0-658-607 0z m-243 406l593 0 0-239-593 0 0 239z m692 450l136-137-136 0 0 137z m190-152c0 4-2 8-5 10 0 1 0 1 0 1l-2 2-188 188c-2 1-4 3-7 3-1 1-1 1-2 1-1 0-1 0-2 0l-449 0c-8 0-15-7-15-16l0-455-228 0c-9 0-16-7-16-16l0-271c0-8 7-15 16-15l228 0 0-151c0-9 7-16 15-16l639 0c8 0 16 7 16 16l0 716c0 1 0 2 0 3m-736-416l-35 0 0 67c9 0 21 0 35 0 24 0 32-7 32-34 0-26-8-33-32-33m0 85c-26 0-38 0-56-2l0-165 21 0 0 66c10-1 23-2 38-2 37 0 50 11 50 51 0 41-13 52-53 52m144-151c-15 0-27 0-38 1l0 131c11 1 23 1 38 1 31 0 42-17 42-67 0-50-11-66-42-66m0 151c-23 0-42-1-59-2l0-165c17-1 36-2 59-2 47 0 64 20 64 84 0 64-17 85-64 85m99-31l0-136 21 0 0 76 69 0 0 17-69 0 0 38c0 11 5 16 16 16l62 0 2 17c-22 1-46 1-69 1-19 0-32-11-32-29" horiz-adv-x="944" />

<glyph glyph-name="dibujo-tecnico" unicode="&#xe831;" d="M658-43l0 194c-1 2-1 5-1 7 0 3 0 6 1 8l0 346-554 0 0-536c4-1 9-2 12-5 4-4 6-9 6-14l536 0z m-340 632l0-13 356 0 160 170-529 0-6-7c11-1 19-10 19-21l0-43c0-12-10-22-22-22-11 0-21 10-21 22l0 39-129-138 129 0 0 13c0 12 10 21 21 21 12 0 22-9 22-21m553-425l7 7 0 528-155-165 0-354c11-1 20-10 20-22 0-11-9-20-20-21l0-131 123 131-38 0c-12 0-22 10-22 21 0 12 10 22 22 22l43 0c10 0 18-7 20-16m69-17c-1-3-2-5-4-7 0-1-1-2-2-4l-220-234c0 0 0 0 0 0-3-3-6-5-10-7 0 0-1 0-1 0-4-2-8-3-12-3l-620 0c-18 0-32 15-32 32l0 620c0 2 1 3 1 5 0 2 0 4 1 7 1 2 3 4 4 6 1 1 2 3 3 4l220 234c0 0 0 0 0 0 2 2 4 3 6 4 1 2 3 3 4 4 1 0 2 0 3 0 3 1 6 2 10 2 0 0 0 0 0 0l619 0c18 0 33-14 33-32l0-620c0-1-1-2-1-4 0-2-1-5-2-7m-644 248c12 0 22 10 22 22l0 43c0 12-10 21-22 21-11 0-21-9-21-21l0-43c0-12 10-22 21-22m0-129c12 0 22 10 22 22l0 43c0 12-10 21-22 21-11 0-21-9-21-21l0-43c0-12 10-22 21-22m-121-203l-30-31c-8-8-8-22 1-30 4-4 9-6 15-6 5 0 11 2 15 7l30 31c8 8 8 22 0 30-9 8-23 8-31-1m417 117l-43 0c-12 0-21-10-21-22 0-11 9-21 21-21l43 0c12 0 22 10 22 21 0 12-10 22-22 22m-258 0l-16 0 0 22c0 11-10 21-22 21-11 0-21-10-21-21l0-30c-3-3-5-8-5-13-2-1-4-1-5-3l-30-31c-8-8-8-22 0-30 5-4 10-6 15-6 6 0 12 2 16 7l30 31c2 3 3 6 4 10l34 0c12 0 22 10 22 21 0 12-10 22-22 22m151-22c0-11-10-21-22-21l-43 0c-12 0-21 10-21 21 0 12 9 22 21 22l43 0c12 0 22-10 22-22" horiz-adv-x="1000" />

<glyph glyph-name="close2" unicode="&#xe832;" d="M52 797l-52-52 197-198 197-197-197-197-197-198 53-53 52-52 198 197 197 197 197-197 198-197 53 52 52 53-197 198-197 197 197 197 197 198-52 53-53 52-198-197-197-197-197 197c-108 108-197 197-198 197 0 0-24-24-53-53" horiz-adv-x="1000" />

<glyph glyph-name="fav" unicode="&#xe835;" d="M313 703c-44 0-87-15-117-42-75-68-71-210 9-355 63-122 233-239 323-295 89 56 260 173 322 294 81 146 85 288 10 356-30 27-73 42-118 42-73 0-138-41-178-112l-73 0c-39 71-104 112-178 112m215-790l-22 13c-107 65-299 195-375 341-98 178-95 362 9 456 45 40 108 64 173 64 84 0 160-37 215-103 55 66 130 103 214 103 65 0 128-24 173-64 105-94 108-278 9-457-75-145-267-275-375-340l-21-13z" horiz-adv-x="1056" />

<glyph glyph-name="fav-on" unicode="&#xe836;" d="M528-87l-22 13c-107 65-299 195-375 341-98 178-95 362 9 456 45 40 108 64 173 64 84 0 160-37 215-103 55 66 130 103 214 103 65 0 128-24 173-64 105-94 108-278 9-457-75-145-267-275-375-340l-21-13z" horiz-adv-x="1056" />

<glyph glyph-name="form-calendario" unicode="&#xe837;" d="M140 730c0 40 1 86 41 85 36-2 48-48 42-85l768 0c0 42 6 86 41 85 35-2 46-48 42-85l81 0 0-845-1100 0 0 845 85 0z m168-656l-174 0 0-110 175 0c-1 37-1 74-1 110z m255 0l-172 0c-1-36-1-73-1-110l175 0c-1 37-2 74-2 110z m255 0l-172 0c-1-36-1-73-1-110l175 0c-1 37-2 74-2 110z m258 0l-175 0c0-36-1-73-1-110l176 0 0 110z m-767 185l-175 0 0-106c58 0 116 1 174 2 0 34 0 69 1 104z m767-104l0 104-173 0c0-33 0-66-1-99 58-1 116-3 174-5z m-512 104l-171 0c-1-35-1-69-1-103 57 1 114 2 171 3 0 33 1 66 1 100z m255 0l-171 0c0-33-1-66-1-99 57 1 114 1 171 1 0 32 1 65 1 98z m-508 193l-177 0 0-114c59 0 117 0 176 1 0 38 0 76 1 113z m765-113l0 113-175 0c1-36 2-72 2-108 58-1 116-2 173-5z m-510 113l-175 0c1-37 1-74 2-111 57 1 114 2 172 2 0 37 1 73 1 109z m255 0l-175 0c1-36 1-72 2-108 57 1 115 1 172 1 1 36 1 72 1 107z m255 81l0 118c-314 0-628 0-942 0l0-120c314 2 629 15 942 2z" horiz-adv-x="1211" />

<glyph glyph-name="form-documento" unicode="&#xe838;" d="M668-131l-642 0c-12 1-21 10-22 22l0 913c1 13 10 21 22 22 151 0 303 9 454 0 8-1 9-3 13-6l5-5c62-59 122-119 181-181l4-5c7-7 6-10 7-15l0-723c-1-12-10-21-22-22z m-74 722c-39 0-79 0-118 1-11 1-19 10-20 21-2 56-2 113-1 170l-407 0 0-870 598 0 0 659c-13 7-31 14-52 19z m-95 44l117 0-117 117 0-117z" horiz-adv-x="692" />

<glyph glyph-name="form-error" unicode="&#xe839;" d="M947-132l-893 0c-26 1-43 27-32 52l446 892c10 18 10 20 34 20 13-1 21-4 30-20l446-892c11-24-6-51-31-52z m-836 71l778 0-389 778c-129-259-259-519-389-778z m380 215l19 0c23 0 30-6 30-29l0-28c0-22-7-29-30-29l-19 0c-23 0-30 7-30 29l0 28c0 23 7 29 30 29z m51 314l0-156-8-118-67 0-9 118 0 156 84 0z" horiz-adv-x="1000" />

<glyph glyph-name="form-ojo" unicode="&#xe83a;" d="M1042 287c0-82-66-148-148-148-81 0-148 66-148 148 0 81 67 147 148 147 82 0 148-66 148-147m-394 0c0-136 110-247 246-247 136 0 246 111 246 247 0 135-110 246-246 246-136 0-246-111-246-246m252-317c-325 0-606 238-700 328 94 89 375 328 700 328 325 0 606-239 700-328-94-90-374-328-700-328m806 361c-6 7-80 87-199 172l47 59c17 21 13 52-8 69-21 17-52 14-69-8l-52-65c-56 35-119 68-187 95l21 58c9 25-4 53-30 63-26 9-54-5-63-30l-20-57c-72 21-148 35-227 36l0 56c0 28-22 50-50 50-27 0-49-22-49-50l0-59c-66-6-130-22-190-41l-23 65c-9 25-38 39-63 30-26-10-39-38-30-63l24-67c-58-26-112-55-161-85l-52 64c-17 22-48 25-69 8-21-17-25-48-8-69l46-58c-119-86-194-166-200-173l-31-33 31-33c15-17 365-394 806-394 442 0 792 377 806 394l31 33-31 33z" horiz-adv-x="1800" />

<glyph glyph-name="ubicacion" unicode="&#xe83b;" d="M829 350c0 182-147 329-329 329-181 0-329-147-329-329 0-181 148-329 329-329 182 0 329 148 329 329m143 0c0-16-12-29-28-29l-59 0c-14-190-166-342-356-356l0-59c0-16-13-28-29-28-16 0-29 12-29 28l0 59c-190 14-342 166-356 356l-59 0c-15 0-28 13-28 29 0 16 13 29 28 29l59 0c14 190 166 342 356 356l0 59c0 16 13 28 29 28 16 0 29-12 29-28l0-59c190-14 342-166 356-356l59 0c16 0 28-13 28-29m-357 0c0-63-52-114-115-114-63 0-114 51-114 114 0 63 51 115 114 115 63 0 115-52 115-115" horiz-adv-x="1000" />

<glyph glyph-name="user-off" unicode="&#xe83c;" d="M109-44l781 0c-20 172-132 314-288 360-15 5-25 18-27 34-1 15 8 30 22 36 66 31 109 97 109 170 0 104-84 188-188 188-103 0-187-84-187-188 0-68 37-131 98-164 13-8 21-23 19-38-2-16-14-28-29-32-165-38-288-185-310-366m822-75c0 0 0 0-1 0l-861 0c-11 0-20 4-27 12-7 7-11 17-11 27 8 205 127 381 300 453-48 48-75 114-75 183 0 145 118 263 262 263 145 0 263-118 263-263 0-75-33-146-87-195 157-77 264-241 274-432 1-3 1-7 1-10 0-21-17-38-38-38" horiz-adv-x="1000" />

<glyph glyph-name="user-on" unicode="&#xe83d;" d="M931-119c0 0 0 0-1 0l-861 0c-11 0-20 4-27 12-7 7-11 17-11 27 8 205 127 381 300 453-48 48-75 114-75 183 0 145 118 263 262 263 145 0 263-118 263-263 0-75-33-146-87-195 157-77 264-241 274-432 1-3 1-7 1-10 0-21-17-38-38-38z" horiz-adv-x="1000" />

<glyph glyph-name="teka" unicode="&#xe841;" d="M824 400l-540 0-51-205-48 0 51 205-68 0 10 51 656 0-10-51z m-305-92l56 60 63 0-81-85 75-88-60 0-61 72-15-72-46 0 35 173 47 0-13-60z m296 60l-40-172-69 0 0 0c-48 0-88 39-88 87 0 49 40 88 88 88 22 0 42-8 58-21l4 18 47 0z m-365-75c-4 43-41 77-86 77-48 0-87-39-87-87 0-47 39-86 87-86l59 0 9 44-69 0 87 52z m289-52l10 43c-1 23-20 42-43 42-23 0-42-19-42-43 0-23 19-42 42-42l0 0 33 0z m-416 42c0 23 18 42 41 42 12 0 22-5 30-13l-69-41c-2 4-2 8-2 12z m28 241c0-36-29-65-65-65-36 0-65 29-65 65 0 36 29 65 65 65 36 0 65-29 65-65z" horiz-adv-x="1014" />

<glyph glyph-name="facebook" unicode="&#xe842;" d="M410 677l100 0 0 158-125 0-25 0c0 0-95 2-155-76 0 0-41-39-41-152l0-118-149 0 0-167 149 0 0-432 171 0 0 432 147 0 20 167-167 0 0 118c0 13 6 71 75 70" horiz-adv-x="550" />

<glyph glyph-name="instagram" unicode="&#xe843;" d="M760 674c-33 0-60-27-60-60 0-33 27-60 60-60 33 0 60 27 60 60 0 33-27 60-60 60m-260-158c-91 0-166-74-166-166 0-91 75-166 166-166 92 0 166 75 166 166 0 92-74 166-166 166m0-415c-137 0-249 112-249 249 0 138 112 249 249 249 138 0 249-111 249-249 0-137-111-249-249-249m-210 653c-107 0-193-87-193-194l0-420c0-107 86-194 193-194l420 0c107 0 194 87 194 194l0 420c0 107-87 194-194 194l-420 0z m420-891l-420 0c-153 0-277 124-277 277l0 420c0 153 124 277 277 277l420 0c153 0 277-124 277-277l0-420c0-153-124-277-277-277" horiz-adv-x="1000" />

<glyph glyph-name="mail" unicode="&#xe844;" d="M730 180l466 378c25 21 29 58 8 83-20 25-57 28-82 8l-428-348-417 348c-25 20-61 17-82-8-21-25-17-61 7-82l454-378c10-10 24-14 37-14 13 0 26 4 37 13m-595-187l1130 0 0 714-1130 0 0-714z m1188-117l-1246 0c-32 0-59 26-59 58l0 832c0 32 27 58 59 58l1246 0c33 0 59-26 59-58l0-832c0-32-26-58-59-58" horiz-adv-x="1400" />

<glyph glyph-name="twitter" unicode="&#xe845;" d="M452-143c505 0 781 379 781 708 0 11 0 22-1 32 54 35 100 79 137 129-49-20-102-33-157-39 56 31 100 80 120 138-53-29-112-50-174-61-50 49-121 79-201 79-151 0-274-112-274-249 0-19 2-38 7-57-228 11-431 110-566 260-23-36-37-79-37-125 0-86 48-162 122-207-45 1-87 13-124 31 0-1 0-2 0-3 0-120 94-221 220-244-23-5-47-9-72-9-18 0-35 2-52 5 35-99 136-171 256-173-93-67-212-106-341-106-22 0-43 1-65 3 122-71 266-112 421-112" horiz-adv-x="1400" />

<glyph glyph-name="placeholder-sm" unicode="&#xe846;" d="M417-108c0 0 366 209 366 550 0 202-164 366-366 366-203 0-367-164-367-366 0-341 367-550 367-550z" horiz-adv-x="833" />

<glyph glyph-name="headset" unicode="&#xe84b;" d="M1027 218c0-39-28-71-65-78l-33-6 0 267 33-6c37-7 65-39 65-78l0-99z m-881-84l-32 6c-38 7-66 39-66 78l0 99c0 39 28 71 66 78l32 6 0-267z m286-157l17 0 0-28c0-11 8-20 19-20 11 0 20 9 20 20l0 28 21 0 0-28c0-11 9-20 19-20 11 0 20 9 20 20l0 28 17 0c15 0 28-13 28-28 0-16-13-29-28-29l-133 0c-16 0-28 13-28 29 0 15 12 28 28 28m536 457l-39 7 0 41c0 159 1 247-49 297-52 52-144 57-342 57-199 0-291-5-342-57-51-50-50-138-50-298l0-40-39-7c-57-10-98-59-98-117l0-99c0-55 38-102 91-115 2-20 3-38 4-53 8-118 26-127 185-127 12 0 24 0 38 1l42 0c10-26 34-43 63-43l133 0c37 0 68 30 68 68 0 37-31 68-68 68l-133 0c-32 0-60-23-66-54l-39 0c-91 0-142-1-163 11-15 8-17 26-20 79-1 12-2 27-4 42l23-4c1 0 2 0 3 0 5 0 9 2 13 5 4 4 7 9 7 15l0 313 0 58c-1 148-1 231 38 269 40 41 131 45 314 45 183 0 273-4 314-45 38-38 38-120 37-269l0-58 0-313c0-6 3-11 7-15 4-3 8-5 13-5 1 0 2 0 3 0l56 10c57 10 98 59 98 117l0 99c0 58-41 107-98 117" horiz-adv-x="1105" />

<glyph glyph-name="angle-left" unicode="&#xf104;" d="M350 546q0-7-6-12l-219-220 219-219q6-6 6-13t-6-13l-28-28q-5-5-12-5t-13 5l-260 261q-6 5-6 12t6 13l260 260q5 6 13 6t12-6l28-28q6-5 6-13z" horiz-adv-x="357.1" />

<glyph glyph-name="angle-right" unicode="&#xf105;" d="M332 314q0-7-5-12l-261-261q-5-5-12-5t-13 5l-28 28q-6 6-6 13t6 13l219 219-219 220q-6 5-6 12t6 13l28 28q5 6 13 6t12-6l261-260q5-5 5-13z" horiz-adv-x="357.1" />
</font>
</defs>
</svg>
